<svg xmlns="http://www.w3.org/2000/svg" width="171.78" height="60" viewBox="0 0 171.78 60"><g id="f8f1cb94-b35a-2d9d-aba5-1fe8d69a934d" fill="#000"><path d="M4.48 5.09L4.48 5.09L4.48 5.09Q4.22 5.24 3.91 5.32L3.91 5.32L3.91 5.32Q3.60 5.40 3.36 5.40L3.36 5.40L3.36 5.40Q3.12 5.40 2.94 5.34L2.94 5.34L2.94 5.34Q2.75 5.28 2.61 5.17L2.61 5.17L2.61 5.17Q2.32 4.94 2.32 4.60L2.32 4.60L2.32 4.60Q2.32 4.27 2.43 4.03L2.43 4.03L2.43 4.03Q2.54 3.80 2.75 3.64L2.75 3.64L2.75 3.64Q3.19 3.28 4.01 3.28L4.01 3.28L4.01 3.28Q4.79 3.28 5.03 3.91L5.03 3.91L5.03 3.91Q5.11 4.09 5.11 4.31L5.11 4.31L5.11 4.31Q5.11 4.53 4.93 4.74L4.93 4.74L4.93 4.74Q4.75 4.94 4.48 5.09ZM1.22 12.60L1.22 12.60L1.22 12.60Q1.00 13.43 0.83 14.08L0.83 14.08L0.83 14.08Q0.65 14.72 0.43 15.17L0.43 15.17L0.43 15.17Q0.22 15.61-0.08 15.85L-0.08 15.85L-0.08 15.85Q-0.38 16.08-0.75 16.08L-0.75 16.08L-0.75 16.08Q-1.11 16.08-1.34 16.00L-1.34 16.00L-1.34 16.00Q-1.57 15.91-1.74 15.79L-1.74 15.79L-1.74 15.79Q-2.10 15.54-2.22 15.22L-2.22 15.22L-2.22 15.22Q-1.69 14.80 0.51 10.43L0.51 10.43L0.51 10.43Q1.74 7.96 2.30 6.97L2.30 6.97L2.30 6.97Q2.54 6.56 2.91 6.56L2.91 6.56L2.91 6.56Q3.12 6.56 3.39 6.70L3.39 6.70L3.39 6.70Q2.39 8.69 1.71 10.90L1.71 10.90L1.71 10.90Q3.04 10.66 4.21 9.65L4.21 9.65L4.21 9.65Q4.57 9.34 4.80 9.00L4.80 9.00L4.80 9.00Q5.11 8.98 5.11 9.25L5.11 9.25L5.11 9.25Q5.11 9.36 4.94 9.76L4.94 9.76L4.94 9.76Q4.77 10.17 4.36 10.69L4.36 10.69L4.36 10.69Q3.95 11.22 3.45 11.61L3.45 11.61L3.45 11.61Q2.45 12.38 1.22 12.60ZM9.15 7.70L9.15 7.70L9.15 7.70Q8.63 7.42 8.23 7.42L8.23 7.42L8.23 7.42Q7.83 7.42 7.51 7.60L7.51 7.60L7.51 7.60Q7.18 7.79 6.94 8.08L6.94 8.08L6.94 8.08Q6.42 8.70 6.42 9.46L6.42 9.46L6.42 9.46Q6.42 10.04 6.83 10.36L6.83 10.36L6.83 10.36Q7.21 10.68 7.94 10.68L7.94 10.68L7.94 10.68Q8.67 10.68 9.38 10.24L9.38 10.24L9.38 10.24Q10.08 9.81 10.62 9.00L10.62 9.00L10.62 9.00Q10.92 8.98 10.92 9.25L10.92 9.25L10.92 9.25Q10.92 9.36 10.76 9.76L10.76 9.76L10.76 9.76Q10.59 10.16 10.15 10.75L10.15 10.75L10.15 10.75Q9.71 11.33 9.14 11.79L9.14 11.79L9.14 11.79Q7.90 12.76 6.43 12.76L6.43 12.76L6.43 12.76Q5.25 12.76 4.57 12.15L4.57 12.15L4.57 12.15Q3.89 11.54 3.89 10.38L3.89 10.38L3.89 10.38Q3.89 9.48 4.60 8.57L4.60 8.57L4.60 8.57Q5.26 7.72 6.28 7.17L6.28 7.17L6.28 7.17Q7.31 6.61 8.20 6.61L8.20 6.61L8.20 6.61Q8.69 6.61 8.96 6.77L8.96 6.77L8.96 6.77Q9.42 7.06 9.42 7.32L9.42 7.32L9.42 7.32Q9.42 7.60 9.15 7.70ZM15.20 3.16L15.20 3.16L15.20 3.16Q15.96 3.16 15.96 4.44L15.96 4.44L15.96 4.44Q15.96 6.13 13.91 8.00L13.91 8.00L13.91 8.00Q13.13 8.72 12.27 9.24L12.27 9.24L12.27 9.24Q12.36 10.29 13.04 10.45L13.04 10.45L13.04 10.45Q13.26 10.49 13.56 10.49L13.56 10.49L13.56 10.49Q13.86 10.49 14.20 10.41L14.20 10.41L14.20 10.41Q14.55 10.34 14.89 10.16L14.89 10.16L14.89 10.16Q15.65 9.77 16.15 9.00L16.15 9.00L16.15 9.00Q16.46 8.98 16.46 9.25L16.46 9.25L16.46 9.25Q16.46 9.36 16.31 9.71L16.31 9.71L16.31 9.71Q16.17 10.06 15.77 10.61L15.77 10.61L15.77 10.61Q15.37 11.17 14.82 11.62L14.82 11.62L14.82 11.62Q13.55 12.66 12.00 12.66L12.00 12.66L12.00 12.66Q10.21 12.66 9.83 11.13L9.83 11.13L9.83 11.13Q9.71 10.65 9.71 10.06L9.71 10.06L9.71 10.06Q9.71 9.47 9.88 8.87L9.88 8.87L9.88 8.87Q10.06 8.26 10.36 7.67L10.36 7.67L10.36 7.67Q10.66 7.08 11.06 6.51L11.06 6.51L11.06 6.51Q11.46 5.95 11.91 5.45L11.91 5.45L11.91 5.45Q12.36 4.95 12.82 4.53L12.82 4.53L12.82 4.53Q13.29 4.11 13.73 3.80L13.73 3.80L13.73 3.80Q14.66 3.16 15.20 3.16ZM12.27 8.42L12.27 8.42L12.27 8.42Q13.42 7.70 14.21 6.69L14.21 6.69L14.21 6.69Q15.00 5.67 15.00 4.89L15.00 4.89L15.00 4.89Q15.00 4.50 14.84 4.33L14.84 4.33L14.84 4.33Q14.79 4.27 14.65 4.27L14.65 4.27L14.65 4.27Q14.51 4.27 14.27 4.45L14.27 4.45L14.27 4.45Q14.02 4.62 13.76 4.92L13.76 4.92L13.76 4.92Q13.50 5.22 13.25 5.63L13.25 5.63L13.25 5.63Q13.00 6.04 12.80 6.49L12.80 6.49L12.80 6.49Q12.35 7.53 12.27 8.42ZM20.64 5.12L20.64 5.12L20.64 5.12Q20.36 5.26 20.04 5.33L20.04 5.33L20.04 5.33Q19.71 5.40 19.48 5.40L19.48 5.40L19.48 5.40Q19.24 5.40 19.04 5.34L19.04 5.34L19.04 5.34Q18.85 5.28 18.70 5.17L18.70 5.17L18.70 5.17Q18.38 4.94 18.38 4.60L18.38 4.60L18.38 4.60Q18.38 4.27 18.49 4.03L18.49 4.03L18.49 4.03Q18.61 3.80 18.84 3.64L18.84 3.64L18.84 3.64Q19.33 3.28 20.01 3.28L20.01 3.28L20.01 3.28Q20.69 3.28 21.00 3.56L21.00 3.56L21.00 3.56Q21.31 3.84 21.31 4.20L21.31 4.20L21.31 4.20Q21.31 4.57 21.12 4.77L21.12 4.77L21.12 4.77Q20.92 4.98 20.64 5.12ZM15.38 11.87L15.38 11.87L15.38 11.87Q15.24 11.56 15.24 11.11L15.24 11.11L15.24 11.11Q15.24 10.66 15.43 10.17L15.43 10.17L15.43 10.17Q15.63 9.67 15.93 9.17L15.93 9.17L15.93 9.17Q16.24 8.67 16.61 8.21L16.61 8.21L16.61 8.21Q16.99 7.75 17.36 7.40L17.36 7.40L17.36 7.40Q18.17 6.62 18.55 6.62L18.55 6.62L18.55 6.62Q18.72 6.62 18.92 6.76L18.92 6.76L18.92 6.76Q19.12 6.90 19.17 6.97L19.17 6.97L19.17 6.97Q18.14 8.08 17.87 9.11L17.87 9.11L17.87 9.11Q17.78 9.43 17.78 9.72L17.78 9.72L17.78 9.72Q17.78 10.02 18.01 10.26L18.01 10.26L18.01 10.26Q18.23 10.49 18.57 10.49L18.57 10.49L18.57 10.49Q18.90 10.49 19.19 10.37L19.19 10.37L19.19 10.37Q19.48 10.24 19.76 10.04L19.76 10.04L19.76 10.04Q20.32 9.62 20.73 9.00L20.73 9.00L20.73 9.00Q21.04 8.98 21.04 9.25L21.04 9.25L21.04 9.25Q21.04 9.47 20.76 9.96L20.76 9.96L20.76 9.96Q20.47 10.45 20.19 10.80L20.19 10.80L20.19 10.80Q19.91 11.15 19.55 11.49L19.55 11.49L19.55 11.49Q19.20 11.83 18.77 12.10L18.77 12.10L18.77 12.10Q17.82 12.70 16.82 12.70L16.82 12.70L16.82 12.70Q15.76 12.70 15.38 11.87ZM22.07 12.40L22.07 12.40L22.07 12.40Q22.07 12.67 21.62 12.67L21.62 12.67L21.62 12.67Q20.48 12.67 20.00 11.77L20.00 11.77L20.00 11.77Q19.82 11.45 19.82 11.01L19.82 11.01L19.82 11.01Q19.82 10.56 19.95 10.12L19.95 10.12L19.95 10.12Q20.08 9.68 20.30 9.25L20.30 9.25L20.30 9.25Q20.52 8.82 20.81 8.42L20.81 8.42L20.81 8.42Q21.10 8.01 21.42 7.67L21.42 7.67L21.42 7.67Q22.09 6.95 22.70 6.65L22.70 6.65L22.70 6.65Q22.87 6.58 23.00 6.58L23.00 6.58L23.00 6.58Q23.13 6.58 23.22 6.58L23.22 6.58L23.22 6.58Q23.45 6.60 23.56 6.75L23.56 6.75L23.56 6.75Q23.14 7.64 22.87 8.37L22.87 8.37L22.87 8.37Q24.09 7.17 25.70 6.73L25.70 6.73L25.70 6.73Q26.23 6.59 26.62 6.59L26.62 6.59L26.62 6.59Q27.02 6.59 27.08 6.74L27.08 6.74L27.08 6.74Q27.14 6.88 27.14 7.01L27.14 7.01L27.14 7.01Q27.14 7.13 27.10 7.34L27.10 7.34L27.10 7.34Q27.07 7.55 26.93 7.92L26.93 7.92L26.93 7.92Q26.78 8.29 26.63 8.66L26.63 8.66L26.63 8.66Q26.25 9.62 26.25 9.97L26.25 9.97L26.25 9.97Q26.25 10.57 26.68 10.57L26.68 10.57L26.68 10.57Q27.42 10.57 28.31 9.60L28.31 9.60L28.31 9.60Q28.57 9.32 28.78 9.00L28.78 9.00L28.78 9.00Q29.09 8.98 29.09 9.25L29.09 9.25L29.09 9.25Q29.09 9.47 28.81 9.97L28.81 9.97L28.81 9.97Q28.53 10.47 28.27 10.84L28.27 10.84L28.27 10.84Q28.01 11.20 27.69 11.55L27.69 11.55L27.69 11.55Q27.37 11.90 26.99 12.18L26.99 12.18L26.99 12.18Q26.15 12.79 25.36 12.79L25.36 12.79L25.36 12.79Q24.57 12.79 24.16 12.37L24.16 12.37L24.16 12.37Q23.75 11.96 23.75 11.16L23.75 11.16L23.75 11.16Q23.75 9.97 24.98 8.33L24.98 8.33L24.98 8.33Q25.35 7.83 25.31 7.83L25.31 7.83L25.31 7.83Q24.79 7.83 23.84 8.48L23.84 8.48L23.84 8.48Q22.91 9.14 22.42 9.88L22.42 9.88L22.42 9.88Q22.10 11.16 22.07 12.40ZM30.27 12.67L30.27 12.67L30.27 12.67Q28.09 12.67 28.09 10.81L28.09 10.81L28.09 10.81Q28.09 9.52 29.80 7.23L29.80 7.23L29.80 7.23Q29.63 7.18 29.49 7.14L29.49 7.14L29.49 7.14Q29.35 7.10 29.26 7.06L29.26 7.06L29.26 7.06Q29.17 7.03 29.15 6.97L29.15 6.97L29.15 6.97Q29.13 6.90 29.13 6.81L29.13 6.81L29.13 6.81Q29.16 6.60 29.23 6.48L29.23 6.48L30.26 6.65L30.26 6.65Q31.47 5.18 32.35 4.63L32.35 4.63L32.35 4.63Q32.61 4.47 32.72 4.47L32.72 4.47L32.72 4.47Q32.83 4.47 32.92 4.50L32.92 4.50L32.92 4.50Q33.00 4.53 33.09 4.58L33.09 4.58L33.09 4.58Q33.28 4.68 33.39 4.82L33.39 4.82L33.39 4.82Q32.47 5.72 31.66 6.89L31.66 6.89L31.66 6.89Q33.23 7.16 33.58 7.18L33.58 7.18L33.58 7.18Q33.39 7.92 33.15 7.92L33.15 7.92L33.15 7.92Q32.57 7.92 31.22 7.59L31.22 7.59L31.22 7.59Q30.54 8.72 30.54 9.47L30.54 9.47L30.54 9.47Q30.54 10.49 31.92 10.49L31.92 10.49L31.92 10.49Q33.47 10.49 34.47 9.00L34.47 9.00L34.47 9.00Q34.77 8.98 34.77 9.25L34.77 9.25L34.77 9.25Q34.77 9.49 34.49 9.96L34.49 9.96L34.49 9.96Q34.20 10.44 33.91 10.79L33.91 10.79L33.91 10.79Q33.63 11.14 33.25 11.47L33.25 11.47L33.25 11.47Q32.87 11.81 32.42 12.08L32.42 12.08L32.42 12.08Q31.42 12.67 30.27 12.67Z" transform="matrix(4.64396282087413,0,0,4.64396282087413,10.309599182291294,-14.674923627812511)"/></g></svg>