<svg xmlns="http://www.w3.org/2000/svg" xmlns:xlink="http://www.w3.org/1999/xlink" width="64" height="64" class="icon" p-id="1869" t="1530023597464" version="1.1" viewBox="0 0 1024 1024"><defs><style type="text/css"/></defs><path fill="#2c2c2c" d="M512 925.215C283.871 925.215 98.785 740.129 98.785 512S283.871 98.785 512 98.785c228.13 0 413.215 185.086 413.215 413.215S740.13 925.215 512 925.215zM219.307 512c0 161.412 131.281 292.693 292.693 292.693S804.694 673.412 804.694 512 673.412 219.306 512 219.306 219.307 350.588 219.307 512zM684.174 512 580.869 512l0 189.391c0 9.685-7.532 17.217-17.217 17.217L460.349 718.608c-9.685 0-17.218-7.532-17.218-17.217L443.131 512 339.827 512c-9.685 0-17.217-7.533-17.217-17.217 0-4.842 2.152-9.146 5.38-12.913l171.635-171.635c3.767-3.228 8.071-4.842 12.375-4.842 4.305 0 8.609 1.614 12.375 4.842l172.173 172.173c4.843 5.38 6.457 12.375 3.767 18.832S691.168 512 684.174 512z" p-id="1870"/></svg>